<svg width="148" height="35" viewBox="0 0 148 35" fill="none" xmlns="http://www.w3.org/2000/svg">
<g clip-path="url(#clip0_2_134)">
<path d="M110.934 25.8759H112.503L109.384 34.5055H107.813L110.933 25.8759H110.934Z" fill="white"/>
<path d="M115.649 33.8274C114.26 33.8274 113.333 33.0351 113.325 31.8491H114.783C114.791 32.3422 115.168 32.5873 115.704 32.5873C116.119 32.5873 116.49 32.3993 116.49 32.0292C116.49 31.6592 116.011 31.5361 115.426 31.4387C114.543 31.2911 113.419 31.0549 113.419 29.7518C113.419 28.7055 114.309 27.9821 115.644 27.9821C116.979 27.9821 117.856 28.7252 117.861 29.8305H116.442C116.436 29.3906 116.128 29.174 115.607 29.174C115.141 29.174 114.866 29.3876 114.866 29.7035C114.866 30.0726 115.339 30.1582 115.913 30.2626C116.815 30.425 117.967 30.6159 117.967 31.9633C117.967 33.0922 117.044 33.8264 115.647 33.8264L115.649 33.8274Z" fill="white"/>
<path d="M122.906 32.3393V33.6709H121.844C120.626 33.6709 119.879 32.9229 119.879 31.6956V29.3413H118.879V29.0185L121.064 26.6958H121.349V28.1386H122.876V29.3413H121.375V31.4968C121.375 32.0312 121.682 32.3383 122.227 32.3383H122.907L122.906 32.3393Z" fill="white"/>
<path d="M124.363 31.3354V28.1396H125.858V31.1651C125.858 31.9525 126.274 32.4209 126.965 32.4209C127.656 32.4209 128.065 31.9416 128.065 31.1651V28.1396H129.56V31.3354C129.56 32.8294 128.53 33.8274 126.965 33.8274C125.4 33.8274 124.363 32.8294 124.363 31.3354Z" fill="white"/>
<path d="M136.993 26.1456V33.6709H135.888L135.712 33.2103C135.248 33.6049 134.65 33.8362 133.98 33.8362C132.302 33.8362 131.072 32.5804 131.072 30.9053C131.072 29.2301 132.302 27.9831 133.98 27.9831C134.551 27.9831 135.069 28.1495 135.498 28.4418V26.1466H136.993V26.1456ZM135.609 30.9053C135.609 30.0382 134.97 29.3896 134.101 29.3896C133.232 29.3896 132.595 30.0362 132.595 30.9053C132.595 31.7743 133.232 32.4209 134.101 32.4209C134.97 32.4209 135.609 31.7704 135.609 30.9053Z" fill="white"/>
<path d="M138.941 28.1396H140.437V33.6709H138.941V28.1396ZM138.944 26.0117H140.434V27.4024H138.944V26.0117Z" fill="white"/>
<path d="M142.02 30.9053C142.02 29.2272 143.296 27.9831 145.01 27.9831C146.723 27.9831 148 29.2291 148 30.9053C148 32.5814 146.715 33.8274 145.01 33.8274C143.305 33.8274 142.02 32.5735 142.02 30.9053ZM146.484 30.9053C146.484 30.0096 145.872 29.3896 145.01 29.3896C144.148 29.3896 143.536 30.0096 143.536 30.9053C143.536 31.8009 144.148 32.4209 145.01 32.4209C145.872 32.4209 146.484 31.8009 146.484 30.9053Z" fill="white"/>
<path d="M38.0841 18.0081C35.2112 18.0081 33.0351 15.8311 33.0351 12.9818C33.0351 10.1325 35.2122 7.97311 38.0841 7.97311C40.4748 7.97311 42.331 9.42483 42.8654 11.6196H40.9029C40.4029 10.5222 39.3331 9.85001 38.0841 9.85001C36.3529 9.85001 35.0508 11.2131 35.0508 12.9828C35.0508 14.7524 36.3716 16.1332 38.0841 16.1332C39.3508 16.1332 40.3675 15.461 40.8852 14.2927H42.8831C42.3654 16.523 40.457 18.0091 38.0841 18.0091V18.0081Z" fill="white"/>
<path d="M49.2904 18.0081C46.3289 18.0081 44.1341 15.8665 44.1341 12.9818C44.1341 10.097 46.3289 7.97311 49.2904 7.97311C52.2518 7.97311 54.4289 10.1148 54.4289 12.9818C54.4289 15.8488 52.2341 18.0081 49.2904 18.0081ZM49.2904 16.1322C51.1102 16.1322 52.4133 14.8222 52.4133 12.9818C52.4133 11.1413 51.1111 9.84902 49.2904 9.84902C47.4696 9.84902 46.1507 11.159 46.1507 12.9818C46.1507 14.8045 47.4528 16.1322 49.2904 16.1322Z" fill="white"/>
<path d="M64.0319 4.78622H66.0121V17.7778H64.5132L64.2455 16.6804C63.3892 17.5121 62.1934 18.0081 60.8558 18.0081C57.9298 18.0081 55.8423 15.8488 55.8423 12.9995C55.8423 10.1502 57.9298 7.97311 60.8558 7.97311C62.0871 7.97311 63.1746 8.38057 64.0319 9.08822V4.78622ZM60.9985 16.1312C62.8184 16.1312 64.1569 14.7681 64.1569 12.9808C64.1569 11.1934 62.8184 9.84803 60.9985 9.84803C59.1787 9.84803 57.8589 11.1934 57.8589 12.9808C57.8589 14.7681 59.1974 16.1312 60.9985 16.1312Z" fill="white"/>
<path d="M68.8043 6.733V4.69765H70.8387V6.733H68.8043ZM68.8398 17.7591V8.20243H70.82V17.7601H68.8398V17.7591Z" fill="white"/>
<path d="M78.7163 7.98984C80.982 7.98984 82.3914 9.65316 82.3914 12.0074V17.7591H80.4112V12.4139C80.4112 10.6797 79.6435 9.75945 78.1986 9.75945C76.682 9.75945 75.6121 10.9631 75.6121 12.6442V17.7591H73.6319V8.20243H75.0059L75.3986 9.54785C76.1121 8.57446 77.3079 7.99082 78.7173 7.99082L78.7163 7.98984Z" fill="white"/>
<path d="M92.9471 8.20243H94.2492V16.521C94.2492 19.5652 92.4294 21.4234 89.4492 21.4234C86.969 21.4234 85.221 20.1488 84.7387 18.0603H86.7013C87.0763 19.1046 88.2179 19.6882 89.4315 19.6882C91.0909 19.6882 92.3221 18.5908 92.3221 16.7857V16.3429C91.4836 17.0682 90.3773 17.4934 89.1283 17.4934C86.4345 17.4934 84.3647 15.4226 84.3647 12.7328C84.3647 10.0429 86.4345 7.97212 89.1283 7.97212C90.5377 7.97212 91.769 8.53804 92.643 9.44155L92.9461 8.20243H92.9471ZM89.3429 15.6716C91.0554 15.6716 92.3044 14.4325 92.3044 12.7337C92.3044 11.035 91.0731 9.81358 89.3429 9.81358C87.6126 9.81358 86.3804 11.0704 86.3804 12.7337C86.3804 14.3971 87.6294 15.6716 89.3429 15.6716Z" fill="white"/>
<path d="M101.83 8.02527C104.148 8.02527 105.594 9.67087 105.594 12.096V17.7601H104.72V12.2731C104.72 10.0961 103.579 8.8215 101.634 8.8215C99.6889 8.8215 98.2264 10.3962 98.2264 12.3086V17.7601H97.3524V8.20243H97.9951L98.1732 10.1492C98.8691 8.85693 100.243 8.02527 101.831 8.02527H101.83Z" fill="white"/>
<path d="M108.656 6.23793V5.01653H109.762V6.23793H108.656ZM108.781 17.7601V8.20242H109.655V17.7601H108.781Z" fill="white"/>
<path d="M117.493 8.02527C119.812 8.02527 121.258 9.67087 121.258 12.096V17.7601H120.384V12.2731C120.384 10.0961 119.242 8.8215 117.297 8.8215C115.353 8.8215 113.89 10.3962 113.89 12.3086V17.7601H113.016V8.20243H113.659L113.837 10.1492C114.533 8.85693 115.907 8.02527 117.494 8.02527H117.493Z" fill="white"/>
<path d="M124.552 6.23793V5.01653H125.641V6.23793H124.552ZM122.019 21.1586V20.3624H122.429C123.839 20.3624 124.659 19.5484 124.659 18.1499V8.20242H125.533V18.202C125.533 20.0071 124.356 21.1576 122.536 21.1576H122.019V21.1586Z" fill="white"/>
<path d="M137.309 8.20243H138.023V17.7601H137.292L137.184 15.6893C136.346 17.0702 134.847 17.955 132.992 17.955C130.173 17.955 128.05 15.8134 128.05 12.9818C128.05 10.1502 130.173 8.02626 132.992 8.02626C134.847 8.02626 136.346 8.91107 137.184 10.2919L137.309 8.20342V8.20243ZM133.045 17.1224C135.418 17.1224 137.149 15.3705 137.149 12.9808C137.149 10.5911 135.418 8.85694 133.045 8.85694C130.672 8.85694 128.942 10.6443 128.942 12.9808C128.942 15.3173 130.708 17.1224 133.045 17.1224Z" fill="white"/>
<path d="M144.253 17.955C142.041 17.955 140.649 16.8576 140.524 15.0703H141.38C141.505 16.398 142.611 17.1588 144.271 17.1588C145.93 17.1588 147.072 16.398 147.072 15.1943C147.072 13.7071 145.627 13.4424 144.128 13.1944C142.469 12.9109 140.702 12.593 140.702 10.6275C140.702 9.06952 142.111 8.02527 144.199 8.02527C146.286 8.02527 147.625 9.08723 147.696 10.786H146.857C146.786 9.52915 145.805 8.80378 144.181 8.80378C142.557 8.80378 141.558 9.52915 141.558 10.6088C141.558 11.9011 142.86 12.1137 144.342 12.3607C146.019 12.6442 147.946 12.9621 147.946 15.1569C147.946 16.8556 146.465 17.953 144.252 17.953L144.253 17.955Z" fill="white"/>
<path d="M12.8233 25.9557C19.9054 25.9557 25.6466 20.1453 25.6466 12.9778C25.6466 5.81037 19.9054 0 12.8233 0C5.74119 0 0 5.81037 0 12.9778C0 20.1453 5.74119 25.9557 12.8233 25.9557Z" fill="white"/>
<path d="M4.64942 13.0182C4.61104 14.342 4.84134 15.6657 5.26455 16.9501C5.64938 18.0406 6.38065 18.9746 7.34321 19.636C8.45931 20.3368 9.73977 20.6094 11.0753 20.6094H19.2719V16.705H11.0625C9.05771 16.705 8.09416 15.3262 8.09416 13.0261V13.028C8.09416 10.7279 9.05771 9.35396 11.0625 9.35396H19.2719V5.45058H11.0753C9.78012 5.45058 8.45931 5.7232 7.34321 6.42396C6.38065 7.08535 5.65036 8.01937 5.26455 9.10988C4.84134 10.3943 4.61104 11.718 4.64942 13.0418" fill="url(#paint0_linear_2_134)"/>
<path fill-rule="evenodd" clip-rule="evenodd" d="M9.62856 12.219L13.4768 12.9631C13.4768 12.9631 10.6541 15.9305 9.62856 12.219Z" fill="#414141"/>
<path fill-rule="evenodd" clip-rule="evenodd" d="M18.6528 12.2328L14.9226 13.0162C14.9226 13.0162 18.1538 15.9521 18.6528 12.2328Z" fill="#414141"/>
</g>
<defs>
<linearGradient id="paint0_linear_2_134" x1="4.64548" y1="13.03" x2="19.2719" y2="13.03" gradientUnits="userSpaceOnUse">
<stop stop-color="#F16222"/>
<stop offset="0.26" stop-color="#F37421"/>
<stop offset="0.71" stop-color="#F68D1E"/>
<stop offset="1" stop-color="#F7981D"/>
</linearGradient>
<clipPath id="clip0_2_134">
<rect width="148" height="34.5055" fill="white"/>
</clipPath>
</defs>
</svg>
